<svg width="150" height="150" viewBox="0 0 150 150" fill="none" xmlns="http://www.w3.org/2000/svg">
<circle cx="75" cy="75" r="75" transform="matrix(-1 0 0 1 150 0)" fill="white"/>
<path d="M110.448 77.3755C104.72 71.7342 98.9911 66.0928 93.2626 60.4515C84.201 51.5278 75.1394 42.6039 66.0778 33.6802C63.9809 31.6152 61.8814 29.5477 59.7845 27.4827C57.3573 25.0924 61.1247 21.3797 63.552 23.7726C69.2804 29.4139 75.0089 35.0553 80.7373 40.6966C89.7989 49.6203 98.8605 58.5439 107.922 67.4677C110.019 69.5326 112.119 71.6002 114.215 73.6651C116.643 76.0555 112.875 79.7685 110.448 77.3755Z" fill="#5C5C5C"/>
<path d="M59.7846 123.518C65.513 117.877 71.2415 112.236 76.9699 106.594C86.0315 97.6707 95.0931 88.7468 104.155 79.8231C106.252 77.7581 108.351 75.6906 110.448 73.6256C112.875 71.2352 116.645 74.9453 114.215 77.3357C108.487 82.9769 102.759 88.6183 97.0301 94.2596C87.9685 103.183 78.9069 112.107 69.8453 121.031C67.7484 123.096 65.6489 125.163 63.552 127.228C61.1248 129.619 57.3546 125.909 59.7846 123.518Z" fill="#5C5C5C"/>
<path d="M110.448 77.3755C104.72 71.7342 98.9911 66.0928 93.2626 60.4515C84.201 51.5278 75.1394 42.6039 66.0778 33.6802C63.9809 31.6152 61.8814 29.5477 59.7845 27.4827C57.3573 25.0924 61.1247 21.3797 63.552 23.7726C69.2804 29.4139 75.0089 35.0553 80.7373 40.6966C89.7989 49.6203 98.8605 58.5439 107.922 67.4677C110.019 69.5326 112.119 71.6002 114.215 73.6651C116.643 76.0555 112.875 79.7685 110.448 77.3755Z" stroke="#5C5C5C" stroke-width="3"/>
<path d="M59.7846 123.518C65.513 117.877 71.2415 112.236 76.9699 106.594C86.0315 97.6707 95.0931 88.7468 104.155 79.8231C106.252 77.7581 108.351 75.6906 110.448 73.6256C112.875 71.2352 116.645 74.9453 114.215 77.3357C108.487 82.9769 102.759 88.6183 97.0301 94.2596C87.9685 103.183 78.9069 112.107 69.8453 121.031C67.7484 123.096 65.6489 125.163 63.552 127.228C61.1248 129.619 57.3546 125.909 59.7846 123.518Z" stroke="#5C5C5C" stroke-width="3"/>
</svg>
