<svg width="90" height="90" viewBox="0 0 90 90" fill="none" xmlns="http://www.w3.org/2000/svg">
<g clip-path="url(#clip0_686_321)">
<path d="M77.9283 8.70142H12.0726C6.62613 8.70142 2.21094 12.7873 2.21094 17.8275V78.7711C2.21094 83.8112 6.62613 87.8971 12.0726 87.8971H77.9283C83.3748 87.8971 87.79 83.8112 87.79 78.7711V17.8275C87.79 12.7873 83.3748 8.70142 77.9283 8.70142Z" fill="#E6C267"/>
<path d="M77.9283 85.8751H15.7433C14.6071 85.8751 13.4673 85.8853 12.3311 85.8751C9.23566 85.8515 6.38788 84.3654 5.07324 81.6997C3.86421 79.2497 4.39589 75.7651 4.39589 73.1499C4.39589 61.402 4.39589 49.6507 4.39589 37.9028V22.5624C4.39589 19.3676 3.846 15.7111 6.32597 13.1297C9.07178 10.2719 12.9938 10.7235 16.6829 10.7235H71.2859C74.0135 10.7235 77.3711 10.2854 80.0368 11.0032C83.4345 11.9165 85.5503 14.7743 85.6013 17.9825C85.6158 18.9565 85.6013 19.9304 85.6013 20.9043C85.6013 31.9311 85.6013 42.9578 85.6013 53.9846C85.6013 62.2378 85.787 70.5078 85.6013 78.7576C85.5139 82.6972 82.1781 85.774 77.9247 85.8751C75.1169 85.9425 75.106 89.9866 77.9247 89.9192C83.1177 89.7979 87.6952 86.8221 89.3668 82.2288C89.9166 80.7156 89.9676 79.162 89.9676 77.5916V65.2135C89.9676 52.5927 89.9676 39.972 89.9676 27.3512C89.9676 24.2238 90.0259 21.0931 89.9676 17.9657C89.8438 11.4346 84.2939 6.70304 77.3456 6.68282C66.5627 6.64912 55.7797 6.68282 44.9931 6.68282C34.2065 6.68282 23.4272 6.64912 12.6406 6.68282C5.68504 6.70304 0.142429 11.4413 0.0258963 17.9825C-0.0323703 21.1436 0.0258963 24.3114 0.0258963 27.4759V77.6422C0.0258963 79.2699 0.0914462 80.8841 0.703245 82.4411C2.45853 86.9064 6.95598 89.8214 12.0689 89.9225C21.2859 90.1012 30.5321 89.9225 39.7491 89.9225H77.9247C80.736 89.9225 80.7397 85.8785 77.9247 85.8785L77.9283 85.8751Z" fill="#333333"/>
<path d="M86.1513 25.5515C76.6721 25.5515 67.1928 25.5515 57.7136 25.5515C42.7427 25.5515 27.7682 25.5515 12.7973 25.5515C9.33045 25.5515 5.86359 25.5515 2.39309 25.5515C-0.418271 25.5515 -0.421913 29.5955 2.39309 29.5955C11.8723 29.5955 21.3516 29.5955 30.8308 29.5955C45.8017 29.5955 60.7762 29.5955 75.7471 29.5955C79.2139 29.5955 82.6808 29.5955 86.1513 29.5955C88.9627 29.5955 88.9663 25.5515 86.1513 25.5515Z" fill="#333333"/>
<path d="M25.9579 16.9512C25.9579 11.9535 25.9579 6.95234 25.9579 1.95459C25.9579 -0.647076 21.5879 -0.650446 21.5879 1.95459C21.5879 6.95234 21.5879 11.9535 21.5879 16.9512C21.5879 19.5529 25.9579 19.5562 25.9579 16.9512Z" fill="#333333"/>
<path d="M67.0321 16.9512C67.0321 11.9535 67.0321 6.95234 67.0321 1.95459C67.0321 -0.647076 62.6621 -0.650446 62.6621 1.95459C62.6621 6.95234 62.6621 11.9535 62.6621 16.9512C62.6621 19.5529 67.0321 19.5562 67.0321 16.9512Z" fill="#333333"/>
<path d="M52.0072 36.3357H37.9941C36.8356 36.3357 35.8965 37.2048 35.8965 38.2768V51.2447C35.8965 52.3168 36.8356 53.1858 37.9941 53.1858H52.0072C53.1657 53.1858 54.1048 52.3168 54.1048 51.2447V38.2768C54.1048 37.2048 53.1657 36.3357 52.0072 36.3357Z" fill="#E6C267"/>
<path d="M52.0072 52.6803H38.8171C37.9613 52.6803 37.0472 52.7274 36.5993 51.8681C36.3262 51.3491 36.4427 50.5942 36.4427 50.0348V39.3046C36.4427 38.671 36.3262 37.9094 36.7778 37.3803C37.3276 36.7367 38.1762 36.8344 38.9591 36.8344H50.5614C51.1295 36.8344 51.796 36.7501 52.3568 36.8715C53.0888 37.0298 53.5403 37.6297 53.5585 38.3037C53.5622 38.5059 53.5585 38.7047 53.5585 38.9069V45.9672C53.5585 47.7196 53.6095 49.4787 53.5585 51.2311C53.5367 52.0332 52.8739 52.6499 52.0072 52.6735C51.3043 52.6937 51.3043 53.7047 52.0072 53.6845C53.6386 53.6373 54.651 52.441 54.651 51.002V40.3123C54.651 39.6416 54.6656 38.971 54.651 38.3003C54.6219 36.8748 53.4201 35.8335 51.8979 35.8234C49.6 35.8099 47.2985 35.8234 45.0006 35.8234C42.7027 35.8234 40.4085 35.8133 38.1142 35.8234C36.592 35.8301 35.383 36.8681 35.3502 38.297C35.3357 38.9575 35.3502 39.6214 35.3502 40.2819V50.9885C35.3502 51.3491 35.3648 51.703 35.5032 52.0467C35.8783 53.0004 36.836 53.6407 37.9322 53.6812C39.8914 53.7519 41.8652 53.6812 43.8244 53.6812H52.0072C52.71 53.6812 52.71 52.6701 52.0072 52.6701V52.6803Z" fill="#333333"/>
<path d="M52.1888 61.948H38.1757C37.0173 61.948 36.0781 62.8171 36.0781 63.8891V76.857C36.0781 77.9291 37.0173 78.7981 38.1757 78.7981H52.1888C53.3473 78.7981 54.2864 77.9291 54.2864 76.857V63.8891C54.2864 62.8171 53.3473 61.948 52.1888 61.948Z" fill="#E6C267"/>
<path d="M52.1888 78.2926H38.9987C38.1429 78.2926 37.2289 78.3397 36.781 77.4804C36.5078 76.9614 36.6244 76.2065 36.6244 75.6471V64.9169C36.6244 64.2834 36.5078 63.5217 36.9594 62.9926C37.5093 62.349 38.3578 62.4467 39.1408 62.4467H50.7431C51.3112 62.4467 51.9776 62.3624 52.5384 62.4838C53.2704 62.6421 53.722 63.242 53.7402 63.916C53.7438 64.1182 53.7402 64.3171 53.7402 64.5193V71.5795C53.7402 73.3319 53.7912 75.091 53.7402 76.8435C53.7183 77.6455 53.0555 78.2622 52.1888 78.2858C51.486 78.306 51.486 79.3171 52.1888 79.2968C53.8203 79.2497 54.8327 78.0533 54.8327 76.6143V65.9246C54.8327 65.2539 54.8472 64.5833 54.8327 63.9126C54.8035 62.4871 53.6018 61.4458 52.0796 61.4357C49.7817 61.4222 47.4802 61.4357 45.1823 61.4357C42.8844 61.4357 40.5901 61.4256 38.2959 61.4357C36.7737 61.4424 35.5646 62.4804 35.5319 63.9093C35.5173 64.5698 35.5319 65.2337 35.5319 65.8942V76.6008C35.5319 76.9614 35.5464 77.3153 35.6848 77.659C36.0599 78.6127 37.0177 79.253 38.1138 79.2935C40.073 79.3642 42.0468 79.2935 44.006 79.2935H52.1888C52.8917 79.2935 52.8917 78.2824 52.1888 78.2824V78.2926Z" fill="#333333"/>
<path d="M27.2435 36.3357H13.2304C12.0719 36.3357 11.1328 37.2048 11.1328 38.2768V51.2447C11.1328 52.3168 12.0719 53.1858 13.2304 53.1858H27.2435C28.402 53.1858 29.3411 52.3168 29.3411 51.2447V38.2768C29.3411 37.2048 28.402 36.3357 27.2435 36.3357Z" fill="#E6C267"/>
<path d="M27.2435 52.6803H14.0534C13.1976 52.6803 12.2836 52.7274 11.8356 51.8681C11.5625 51.3491 11.6791 50.5942 11.6791 50.0348V39.3046C11.6791 38.671 11.5625 37.9094 12.0141 37.3803C12.564 36.7367 13.4125 36.8344 14.1954 36.8344H25.7978C26.3659 36.8344 27.0323 36.7501 27.5931 36.8715C28.3251 37.0298 28.7766 37.6297 28.7949 38.3037C28.7985 38.5059 28.7949 38.7047 28.7949 38.9069V45.9672C28.7949 47.7196 28.8458 49.4787 28.7949 51.2311C28.773 52.0332 28.1102 52.6499 27.2435 52.6735C26.5407 52.6937 26.5407 53.7047 27.2435 53.6845C28.875 53.6373 29.8874 52.441 29.8874 51.002V40.3123C29.8874 39.6416 29.9019 38.971 29.8874 38.3003C29.8582 36.8748 28.6565 35.8335 27.1343 35.8234C24.8364 35.8099 22.5348 35.8234 20.237 35.8234C17.9391 35.8234 15.6448 35.8133 13.3506 35.8234C11.8284 35.8301 10.6193 36.8681 10.5866 38.297C10.572 38.9575 10.5866 39.6214 10.5866 40.2819V50.9885C10.5866 51.3491 10.6011 51.703 10.7395 52.0467C11.1146 53.0004 12.0723 53.6407 13.1685 53.6812C15.1277 53.7519 17.1015 53.6812 19.0607 53.6812H27.2435C27.9463 53.6812 27.9463 52.6701 27.2435 52.6701V52.6803Z" fill="#333333"/>
<path d="M27.4252 61.948H13.4121C12.2536 61.948 11.3145 62.8171 11.3145 63.8891V76.857C11.3145 77.9291 12.2536 78.7981 13.4121 78.7981H27.4252C28.5836 78.7981 29.5228 77.9291 29.5228 76.857V63.8891C29.5228 62.8171 28.5836 61.948 27.4252 61.948Z" fill="#E6C267"/>
<path d="M27.4251 78.2926H14.2351C13.3793 78.2926 12.4652 78.3397 12.0173 77.4804C11.7442 76.9614 11.8607 76.2065 11.8607 75.6471V64.9169C11.8607 64.2834 11.7442 63.5217 12.1957 62.9926C12.7456 62.349 13.5941 62.4467 14.3771 62.4467H25.9794C26.5475 62.4467 27.2139 62.3624 27.7747 62.4838C28.5067 62.6421 28.9583 63.242 28.9765 63.916C28.9801 64.1182 28.9765 64.3171 28.9765 64.5193V71.5795C28.9765 73.3319 29.0275 75.091 28.9765 76.8435C28.9546 77.6455 28.2919 78.2622 27.4251 78.2858C26.7223 78.306 26.7223 79.3171 27.4251 79.2968C29.0566 79.2497 30.069 78.0533 30.069 76.6143V65.9246C30.069 65.2539 30.0836 64.5833 30.069 63.9126C30.0399 62.4871 28.8381 61.4458 27.3159 61.4357C25.018 61.4222 22.7165 61.4357 20.4186 61.4357C18.1207 61.4357 15.8265 61.4256 13.5322 61.4357C12.01 61.4424 10.801 62.4804 10.7682 63.9093C10.7536 64.5698 10.7682 65.2337 10.7682 65.8942V76.6008C10.7682 76.9614 10.7828 77.3153 10.9211 77.659C11.2962 78.6127 12.254 79.253 13.3501 79.2935C15.3093 79.3642 17.2831 79.2935 19.2423 79.2935H27.4251C28.128 79.2935 28.128 78.2824 27.4251 78.2824V78.2926Z" fill="#333333"/>
<path d="M77.4974 36.3357H63.4843C62.3258 36.3357 61.3867 37.2048 61.3867 38.2768V51.2447C61.3867 52.3168 62.3258 53.1858 63.4843 53.1858H77.4974C78.6559 53.1858 79.595 52.3168 79.595 51.2447V38.2768C79.595 37.2048 78.6559 36.3357 77.4974 36.3357Z" fill="#E6C267"/>
<path d="M77.4974 52.6803H64.3073C63.4515 52.6803 62.5375 52.7274 62.0895 51.8681C61.8164 51.3491 61.933 50.5942 61.933 50.0348V39.3046C61.933 38.671 61.8164 37.9094 62.268 37.3803C62.8179 36.7367 63.6664 36.8344 64.4493 36.8344H76.0517C76.6198 36.8344 77.2862 36.7501 77.847 36.8715C78.579 37.0298 79.0306 37.6297 79.0488 38.3037C79.0524 38.5059 79.0488 38.7047 79.0488 38.9069V45.9672C79.0488 47.7196 79.0997 49.4787 79.0488 51.2311C79.0269 52.0332 78.3641 52.6499 77.4974 52.6735C76.7946 52.6937 76.7946 53.7047 77.4974 53.6845C79.1289 53.6373 80.1413 52.441 80.1413 51.002V40.3123C80.1413 39.6416 80.1558 38.971 80.1413 38.3003C80.1121 36.8748 78.9104 35.8335 77.3882 35.8234C75.0903 35.8099 72.7887 35.8234 70.4909 35.8234C68.193 35.8234 65.8987 35.8133 63.6045 35.8234C62.0823 35.8301 60.8732 36.8681 60.8405 38.297C60.8259 38.9575 60.8405 39.6214 60.8405 40.2819V50.9885C60.8405 51.3491 60.855 51.703 60.9934 52.0467C61.3685 53.0004 62.3263 53.6407 63.4224 53.6812C65.3816 53.7519 67.3554 53.6812 69.3146 53.6812H77.4974C78.2003 53.6812 78.2003 52.6701 77.4974 52.6701V52.6803Z" fill="#333333"/>
<path d="M77.681 61.948H63.6679C62.5094 61.948 61.5703 62.8171 61.5703 63.8891V76.857C61.5703 77.9291 62.5094 78.7981 63.6679 78.7981H77.681C78.8395 78.7981 79.7786 77.9291 79.7786 76.857V63.8891C79.7786 62.8171 78.8395 61.948 77.681 61.948Z" fill="#E6C267"/>
<path d="M77.681 78.2926H64.4909C63.6351 78.2926 62.7211 78.3397 62.2731 77.4804C62 76.9614 62.1166 76.2065 62.1166 75.6471V64.9169C62.1166 64.2834 62 63.5217 62.4516 62.9926C63.0015 62.349 63.85 62.4467 64.6329 62.4467H76.2353C76.8034 62.4467 77.4698 62.3624 78.0306 62.4838C78.7626 62.6421 79.2141 63.242 79.2324 63.916C79.236 64.1182 79.2324 64.3171 79.2324 64.5193V71.5795C79.2324 73.3319 79.2833 75.091 79.2324 76.8435C79.2105 77.6455 78.5477 78.2622 77.681 78.2858C76.9782 78.306 76.9782 79.3171 77.681 79.2968C79.3125 79.2497 80.3249 78.0533 80.3249 76.6143V65.9246C80.3249 65.2539 80.3394 64.5833 80.3249 63.9126C80.2957 62.4871 79.094 61.4458 77.5718 61.4357C75.2739 61.4222 72.9723 61.4357 70.6745 61.4357C68.3766 61.4357 66.0823 61.4256 63.7881 61.4357C62.2659 61.4424 61.0568 62.4804 61.0241 63.9093C61.0095 64.5698 61.0241 65.2337 61.0241 65.8942V76.6008C61.0241 76.9614 61.0386 77.3153 61.177 77.659C61.5521 78.6127 62.5098 79.253 63.606 79.2935C65.5652 79.3642 67.539 79.2935 69.4982 79.2935H77.681C78.3838 79.2935 78.3838 78.2824 77.681 78.2824V78.2926Z" fill="#333333"/>
</g>
<defs>
<clipPath id="clip0_686_321">
<rect width="90" height="90" fill="white"/>
</clipPath>
</defs>
</svg>
