<svg width="90" height="90" viewBox="0 0 90 90" fill="none" xmlns="http://www.w3.org/2000/svg">
<g clip-path="url(#clip0_686_256)">
<path d="M80.6924 40.5806H7.37109V87.8576H80.6924V40.5806Z" fill="#F5CC68"/>
<path d="M87.4946 22.8518H2.45703V40.2114H87.4946V22.8518Z" fill="#F5CC68"/>
<path d="M52.3463 24.3291H37.2285V87.8576H52.3463V24.3291Z" fill="#FF88BE"/>
<path d="M50.0785 16.2034H40.252V21.7436H50.0785V16.2034Z" fill="#FF88BE"/>
<path d="M40.6285 15.4314C40.6285 15.4314 26.0096 -1.14146 18.9572 3.8374C11.9047 8.81627 12.6115 10.7812 12.6115 10.7812L24.7435 14.5486L37.0796 20.0815L40.2506 16.2033" fill="#FF88BE"/>
<path d="M47.6621 14.8811C47.6621 14.8811 56.283 0.890029 64.5185 2.63706C72.7539 4.3841 75.6149 5.15235 75.6149 5.15235L78.1282 9.92807L54.9905 18.3382H50.149L47.6621 14.8811Z" fill="#FF88BE"/>
<path d="M30.3451 17.9171C25.7833 16.2772 21.2442 14.4378 16.6105 12.9973C14.9816 12.4913 13.0087 12.1256 11.7577 13.5735C10.3556 15.1986 11.376 17.1895 12.6157 18.5708C14.2748 20.4139 20.0763 23.7011 21.6788 20.1517C22.601 18.1128 20.9305 16.7721 19.2373 15.9854C17.0225 14.9586 14.804 13.9318 12.5892 12.905C9.96628 11.6898 7.66081 15.5089 10.2989 16.7315C11.6708 17.3667 13.0427 18.002 14.4147 18.6373C15.0496 18.9291 15.6808 19.2246 16.3157 19.5164C16.6332 19.6641 16.9507 19.8082 17.2644 19.9559C17.922 20.3548 18.0732 20.3917 17.7255 20.063L17.4987 18.3566L17.4231 18.7038L18.4663 17.3778C19.1617 17.0417 18.9992 17.2485 18.2773 17.0306C17.8389 16.8977 17.4382 16.7278 17.049 16.484C16.739 16.2919 16.4631 16.0777 16.2024 15.8265C15.9945 15.6493 15.8206 15.4461 15.677 15.2171C15.4918 14.9586 15.4767 14.9327 15.6317 15.1359L14.9665 16.7019C14.033 16.8053 13.8667 16.9014 14.46 16.9974C14.7813 17.0713 15.095 17.1599 15.4087 17.267C16.0587 17.4702 16.7013 17.7176 17.3438 17.9466C18.6174 18.4046 19.8873 18.8589 21.161 19.3169L29.1432 22.1831C31.8871 23.1693 33.07 18.8885 30.3488 17.9097L30.3451 17.9171Z" fill="#5FFFE0"/>
<path d="M21.9294 22.5636C24.8472 22.5636 24.8509 18.1313 21.9294 18.1313C19.0079 18.1313 19.0079 22.5636 21.9294 22.5636Z" fill="#5FFFE0"/>
<path d="M60.604 21.3705C63.62 20.3806 66.4697 19.0842 69.2022 17.496C70.5893 16.6871 71.451 16.857 73.0535 16.8201C73.6658 16.8053 74.3007 16.7536 74.8903 16.5948C75.2531 16.4766 75.6122 16.3436 75.9637 16.1959C76.5079 16.0888 76.4663 15.9964 75.8465 15.9226L76.3038 12.4433C74.3687 13.7692 72.4412 15.1137 70.491 16.4212C68.9415 17.4591 66.6927 16.6945 64.905 16.4434L65.9066 20.148L65.3963 20.4287C68.3027 20.6724 68.2876 16.2402 65.3963 15.9964C64.323 15.9078 63.4764 16.3067 62.7016 17.0122C61.5526 18.0537 61.9948 20.4767 63.7031 20.7168C66.0502 21.0492 69.0813 21.9393 71.3414 21.0566C73.9039 20.0556 76.3378 17.8173 78.5979 16.2698C79.7885 15.4535 80.1437 13.8764 79.0553 12.7905C77.9668 11.7046 76.4966 11.4386 75.0339 11.8412C74.0739 12.1072 73.439 12.3879 72.4223 12.3694C71.4699 12.3509 70.5704 12.2697 69.6218 12.4728C67.9701 12.8311 66.5982 13.8985 65.1356 14.6779C63.295 15.6566 61.3826 16.447 59.3984 17.0971C56.6469 18.002 57.8261 22.2828 60.604 21.3705Z" fill="#5FFFE0"/>
<path d="M83.1479 37.8106H8.16361C6.45152 37.8106 4.70919 37.6998 4.53534 35.517C4.4144 33.962 4.53534 32.3516 4.53534 30.7966C4.53534 29.4226 4.35014 27.9194 4.54668 26.5528C4.85659 24.4179 6.74632 24.5177 8.39038 24.5177H80.627C81.621 24.5177 83.0156 24.2997 83.9718 24.6654C85.6763 25.3155 85.4118 27.1327 85.4118 28.5584V34.4791C85.4118 36.0488 85.1774 37.7072 83.1441 37.8143C80.2415 37.9695 80.2226 42.4017 83.1441 42.2465C86.4435 42.073 89.2932 39.9529 89.8375 36.6693C90.1058 35.059 89.9471 33.3415 89.9471 31.72C89.9471 30.0986 90.0189 28.4032 89.9471 26.7559C89.8186 23.7863 87.9515 21.1418 84.9469 20.3329C83.5334 19.9525 81.9309 20.0891 80.4758 20.0891H72.5314C55.3538 20.0891 38.1762 20.0891 20.9948 20.0891C16.3348 20.0891 11.652 19.9562 6.99576 20.0891C2.33948 20.2221 0 23.465 0 27.6054V33.9214C0 35.8383 0.0264562 37.6555 1.18675 39.325C4.01377 43.3915 10.7374 42.2429 15.0838 42.2429H83.1479C86.0656 42.2429 86.0694 37.8106 83.1479 37.8106Z" fill="#333333"/>
<path d="M78.4241 85.457H17.7299C15.7268 85.457 13.6632 85.5974 11.6639 85.457C8.72728 85.2502 9.26018 82.288 9.26018 80.2307C9.26018 75.8687 9.26018 71.5103 9.26018 67.1483C9.26018 62.0844 9.26018 57.0206 9.26018 51.9531C9.26018 49.4895 9.04476 46.9188 9.26018 44.4627C9.49829 41.7627 12.3933 42.2428 14.3624 42.2428H24.7899C42.3757 42.2428 59.9615 42.2428 77.5472 42.2428C78.3674 42.2428 79.1649 42.1838 79.8565 42.7378C80.8014 43.495 80.6918 44.5845 80.6918 45.6372V56.8138C80.6918 65.4086 80.7673 74.0071 80.6918 82.6019C80.6804 84.035 80.1702 85.361 78.4241 85.457C75.5215 85.6122 75.5026 90.0444 78.4241 89.8893C82.2451 89.6861 85.0646 86.9825 85.2271 83.2225C85.2649 82.3619 85.2271 81.4939 85.2271 80.637V51.2255C85.2271 48.6142 85.6844 45.5005 85.0419 42.9261C84.2747 39.8531 81.5119 37.9325 78.3561 37.8143C77.6909 37.7885 77.0219 37.8143 76.3567 37.8143H33.494C26.2866 37.8143 19.0679 37.6998 11.8604 37.8143C7.42715 37.8845 4.72485 41.0942 4.72485 45.2641V56.6476C4.72485 65.4123 4.56611 74.1918 4.72485 82.9565C4.80044 87.2078 8.02808 89.8634 12.2233 89.8929C15.0616 89.9151 17.8962 89.8929 20.7346 89.8929H78.4203C81.338 89.8929 81.3418 85.4607 78.4203 85.4607L78.4241 85.457Z" fill="#333333"/>
<path d="M54.8024 87.8577V23.6422C54.8024 19.3429 52.1681 14.4638 47.9502 12.8719C43.7324 11.28 39.0572 13.4813 36.6119 17.0825C35.7124 18.4085 34.8733 20.0041 34.8129 21.6182C34.6655 25.4151 34.8129 29.2453 34.8129 33.0422V53.8441C34.8129 64.9801 34.5748 76.1419 34.8129 87.2742C34.8166 87.4699 34.8129 87.6657 34.8129 87.8651C34.8129 90.7165 39.3482 90.7202 39.3482 87.8651V24.4252C39.3482 23.4538 39.4956 22.3569 39.3482 21.3929C39.2953 21.0567 39.2121 21.9432 39.2839 21.8287C39.42 21.6071 39.5787 21.005 39.609 20.9349C40.0738 19.8822 40.9809 18.475 42.0921 17.6809C45.3386 15.365 48.3773 17.7695 49.6472 20.7982C49.874 21.3411 50.0251 21.9026 50.2028 22.4603C50.3577 22.9478 50.1952 23.4169 50.2708 22.4935C50.2519 22.7151 50.2784 22.9441 50.2708 23.1694C49.9873 33.9471 50.2708 44.7654 50.2708 55.5431C50.2708 66.3208 50.0062 76.7292 50.2708 87.3C50.2746 87.4884 50.2708 87.6768 50.2708 87.8614C50.2708 90.7128 54.8061 90.7165 54.8061 87.8614L54.8024 87.8577Z" fill="#333333"/>
<path d="M42.5865 13.4335C39.2228 7.69746 33.2172 2.05007 26.35 0.967864C20.0307 -0.025693 14.0365 2.99191 9.6864 7.3318C6.36804 10.6412 4.61438 15.2913 7.71353 19.3247C9.57679 21.7476 12.4719 23.4429 15.3745 24.4365C18.2771 25.43 19.3202 21.1012 16.5801 20.1631C16.4403 20.1151 16.3042 20.0634 16.1682 20.008C15.7222 19.827 16.6141 20.2111 16.0585 19.9599C15.8015 19.8418 15.5408 19.7273 15.2875 19.6017C14.1991 19.0661 13.1333 18.4382 12.3093 17.7032C9.73553 15.4058 10.4121 12.9386 12.8914 10.4639C16.1795 7.18775 20.8471 4.45085 25.7037 5.3373C29.2866 5.99105 32.3215 8.21086 34.7895 10.7298C36.3202 12.2922 37.556 13.7733 38.6672 15.6681C40.1185 18.1427 44.0378 15.9118 42.5827 13.4298L42.5865 13.4335Z" fill="#333333"/>
<path d="M36.2933 18.9072C32.7179 16.2257 28.7533 13.884 24.6526 12.0631C19.2102 9.6475 11.4585 7.25041 6.67754 12.2108C4.67821 14.2866 7.8794 17.4261 9.88629 15.3466C13.4579 11.6383 20.3856 14.8738 24.1273 16.7169C27.5779 18.4159 30.934 20.4326 34.0029 22.7336C36.316 24.4696 38.5799 20.6209 36.2933 18.9072Z" fill="#333333"/>
<path d="M50.3039 14.9292C52.7416 10.774 56.8915 6.44889 61.8085 4.9604C66.4043 3.56794 70.7809 5.31498 74.3639 8.19592C76.9452 10.2754 79.8478 13.4001 77.4328 16.2035C76.4917 17.2968 75.3768 17.9874 74.0729 18.6671C73.8007 18.8074 72.3797 19.4464 72.973 19.2026C72.7841 19.2802 72.5875 19.3577 72.3948 19.4242C69.6585 20.3624 70.8376 24.6469 73.6004 23.6976C76.0306 22.8629 78.457 21.5295 80.2711 19.7308C83.6386 16.3918 83.6084 11.9338 80.7625 8.2661C77.1002 3.55686 70.7809 -0.280707 64.5675 0.014775C59.7487 0.247467 55.4628 2.66303 52.0198 5.83576C49.8655 7.82288 47.8624 10.172 46.3846 12.6909C44.9068 15.2099 48.8488 17.4039 50.3001 14.9292H50.3039Z" fill="#333333"/>
<path d="M54.9691 21.9987C58.038 19.6977 61.3941 17.681 64.8448 15.982C68.5864 14.1389 75.5141 10.9034 79.0857 14.6117C81.0888 16.6948 84.2938 13.5553 82.2945 11.4759C77.5173 6.51549 69.7618 8.90889 64.3194 11.3281C60.2187 13.149 56.2579 15.4907 52.6787 18.1722C50.3959 19.886 52.6523 23.7347 54.9691 21.9987Z" fill="#333333"/>
</g>
<defs>
<clipPath id="clip0_686_256">
<rect width="90" height="90" fill="white"/>
</clipPath>
</defs>
</svg>
