<svg width="90" height="90" viewBox="0 0 90 90" fill="none" xmlns="http://www.w3.org/2000/svg">
<g clip-path="url(#clip0_686_502)">
<path d="M65.418 1.35669C56.6734 1.35669 49.048 7.03228 45.0151 15.4462C40.9821 7.03228 33.3549 1.35669 24.6121 1.35669C11.6572 1.35669 1.1582 13.8091 1.1582 29.1694C1.1582 56.7559 45.0151 88.6387 45.0151 88.6387C45.0151 88.6387 88.8719 52.9119 88.8719 29.1694C88.8719 13.8091 78.3711 1.35669 65.418 1.35669Z" fill="#E6C267"/>
<path d="M65.4165 9.91605e-05C56.5994 0.0634126 48.4286 5.6983 44.0258 14.7612H46.0013C40.0291 2.47158 27.0494 -3.24471 15.8201 1.92437C5.91036 6.48746 -0.952283 18.7024 0.107909 31.4262C0.950724 41.5382 6.30126 50.4812 11.791 57.9047C17.7574 65.9749 24.6944 73.0072 31.8946 79.4788C35.8551 83.0379 39.9242 86.7055 44.2355 89.6632C44.3042 89.7107 44.369 89.7627 44.4358 89.8102C44.7637 90.0476 45.2652 90.0747 45.5913 89.8102C48.2265 87.662 50.7855 85.376 53.3177 83.0628C59.0477 77.8281 64.6137 72.3289 69.8689 66.4294C75.5246 60.08 81.0048 53.2241 85.1769 45.3822C86.9254 42.0967 88.4642 38.5557 89.3318 34.7931C90.3405 30.4222 90.1479 25.8139 89.1469 21.4611C86.6299 10.5101 78.6212 2.00125 69.1386 0.339278C67.903 0.124465 66.6636 0.00914393 65.4165 9.91605e-05C63.9444 -0.00894561 63.9425 2.70449 65.4165 2.71353C74.5978 2.77458 83.1156 9.61017 86.3191 19.8873C87.6062 24.0185 88.1687 28.6901 87.3526 32.9977C86.6852 36.5138 85.3485 39.7948 83.7944 42.8723C79.9598 50.4654 74.7637 57.0636 69.4208 63.1869C64.3029 69.0501 58.8666 74.5177 53.2605 79.7117C51.3594 81.4731 49.4335 83.1984 47.4867 84.8875C46.5504 85.6993 45.4235 86.4252 44.573 87.359C44.5349 87.402 44.4834 87.4336 44.4396 87.4698H45.5951C42.3192 85.0865 39.1596 82.459 36.0534 79.7795C29.349 73.9976 22.9059 67.7115 17.0958 60.6883C11.2857 53.665 5.62815 45.692 3.237 36.2425C0.504528 25.4453 4.26096 13.4836 12.1514 7.21557C16.579 3.69941 21.9315 2.17989 27.2248 2.88312C32.8404 3.62931 38.0498 7.05954 41.6937 12.1472C42.5785 13.3818 43.3431 14.725 44.0239 16.1269C44.451 17.0065 45.5722 17.0065 45.9993 16.1269C50.0056 7.88262 57.3888 2.7678 65.4146 2.71127C66.8867 2.69996 66.8905 -0.013468 65.4146 -0.00216203L65.4165 9.91605e-05Z" fill="#333333"/>
</g>
<defs>
<clipPath id="clip0_686_502">
<rect width="90" height="90" fill="white"/>
</clipPath>
</defs>
</svg>
