<svg width="90" height="90" viewBox="0 0 90 90" fill="none" xmlns="http://www.w3.org/2000/svg">
<g clip-path="url(#clip0_686_275)">
<path d="M22.2285 29.5689L31.1425 57.033L31.9261 66.2786L78.1456 67.1906L83.8075 31.0343L79.3947 29.5161L22.2285 29.5689Z" fill="#D8D8D8"/>
<path d="M4.40019 18.3992C7.48739 18.3659 10.5834 18.2685 13.6706 18.3019C14.0271 18.3047 14.7488 18.238 15.0404 18.4854C15.3674 18.7607 15.3615 19.6338 15.4263 20.0314C15.6797 21.5608 15.8387 23.1012 15.9507 24.6445C16.1038 26.7744 19.6418 26.7911 19.4856 24.6445C19.3472 22.7147 19.1233 20.7878 18.7904 18.8803C18.5047 17.2342 17.8537 15.8633 16.0714 15.2877C14.4513 14.7622 12.6042 14.9763 10.9251 14.9958L4.40314 15.0653C2.12898 15.0903 2.12309 18.427 4.40314 18.402L4.40019 18.3992Z" fill="#F5CC68"/>
<path d="M13.6775 18.2074C15.2505 21.9556 16.8295 25.7261 17.7662 29.6718C18.217 31.5737 18.4467 33.5174 18.9092 35.4166C19.3717 37.3157 20.0168 39.1231 20.7268 40.9305C22.1142 44.4674 23.7315 47.9404 24.6152 51.6331C25.499 55.3257 25.7376 58.7848 27.6906 61.9992C28.8218 63.8622 31.8766 62.1827 30.7425 60.3141C28.8778 57.2471 28.7659 53.624 27.9027 50.2567C26.9601 46.5807 25.3163 43.1161 23.9524 39.5708C22.5561 35.9421 22.0259 32.2661 21.1127 28.529C20.1995 24.7918 18.6264 20.988 17.0887 17.3203C16.2609 15.3461 12.8409 16.2081 13.6804 18.2074H13.6775Z" fill="#F5CC68"/>
<path d="M26.8917 59.1713C27.0773 62.458 27.1303 65.7447 27.0567 69.0341C27.0095 71.1835 30.5445 71.1808 30.5916 69.0341C30.6653 65.7447 30.6093 62.458 30.4267 59.1713C30.3059 57.0358 26.7709 57.0219 26.8917 59.1713Z" fill="#F5CC68"/>
<path d="M29.829 71.2976C30.5919 71.0446 31.5493 71.1224 32.3653 71.0807C33.4405 71.0251 34.5128 70.9778 35.588 70.9417C37.6412 70.8694 39.6944 70.8332 41.7477 70.8221C44.0218 70.811 44.0277 67.4743 41.7477 67.4854C39.4676 67.4965 37.2494 67.541 35.0018 67.6244C33.0959 67.6967 30.695 67.477 28.8893 68.0804C26.7594 68.7895 27.6756 72.015 29.829 71.2976Z" fill="#F5CC68"/>
<path d="M30.0696 69.5791L32.058 70.0491C32.9535 70.2604 34.0169 69.7766 34.232 68.884C34.447 67.9914 33.958 67.0571 32.9977 66.8319L31.0093 66.362C30.1138 66.1507 29.0503 66.6345 28.8353 67.5271C28.6202 68.4196 29.1092 69.3539 30.0696 69.5791Z" fill="#F5CC68"/>
<path d="M41.7503 71.089C53.884 70.5857 66.0354 71.1752 78.1633 71.5895C80.4374 71.6674 80.4345 68.3307 78.1633 68.2528C66.0354 67.8413 53.884 67.249 41.7503 67.7523C39.485 67.8468 39.4732 71.1836 41.7503 71.089Z" fill="#F5CC68"/>
<path d="M79.252 66.9822C72.8714 67.5772 66.5262 65.9672 60.1632 67.0517C57.9274 67.4326 58.8759 70.6498 61.1029 70.2688C67.1094 69.2456 73.2072 70.8834 79.252 70.3189C81.4937 70.1103 81.5173 66.7708 79.252 66.9822Z" fill="#F5CC68"/>
<path d="M27.0064 5.0718C26.4202 5.52225 25.6867 5.79475 24.9414 5.87817C24.5113 5.92544 23.3624 5.94491 23.1651 5.71412L23.6187 7.33799C23.5392 7.66332 24.7823 7.11276 25.0563 7.04047C25.6896 6.87085 26.3878 6.88753 27.0005 6.71792L27.4925 6.70401L26.9504 6.22297C26.9092 6.22297 26.4467 6.64006 26.3465 6.68455C25.6661 6.9932 24.7381 6.89588 24.0135 6.92646C23.657 6.94037 22.3432 6.87085 22.084 7.10998C21.7364 7.11554 21.8689 7.29072 22.4758 7.63552C22.6908 8.1972 22.9088 8.31955 23.1297 7.99978C23.3271 7.93026 23.5893 7.57434 23.7631 7.44088C24.7499 6.69567 25.9017 6.32863 27.139 6.15623C29.3807 5.84481 28.4292 2.63042 26.1993 2.93907C24.1667 3.21991 22.243 4.11805 20.7819 5.48889C19.3208 6.85973 18.4017 9.39008 20.8791 10.2715C21.8306 10.6108 22.7645 10.3216 23.7425 10.2688C24.9384 10.202 26.158 10.2604 27.3128 9.89615C29.148 9.31779 30.7476 7.66889 30.4471 5.7447C30.0995 3.51187 27.9991 3.23381 26.0225 3.46738C24.2344 3.67871 20.9793 4.27654 20.287 6.11174C19.474 8.26394 22.1694 9.087 23.8956 9.21212C25.996 9.36506 27.8931 8.65878 29.5015 7.42697C31.269 6.07282 28.7533 3.72598 27.0005 5.06623L27.0064 5.0718Z" fill="#F5CC68"/>
<path d="M22.1403 11.4811C23.8607 12.2012 24.7268 13.9085 25.5044 15.4379C26.4235 17.2369 27.2808 19.0666 28.1645 20.8795C29.113 22.8287 32.162 21.1353 31.2163 19.1945C30.1971 17.1035 29.2486 14.9652 28.1174 12.927C27.1541 11.1919 25.8756 9.41786 23.9196 8.60036C21.8575 7.73559 20.0577 10.6107 22.1345 11.4811H22.1403Z" fill="#F5CC68"/>
<path d="M23.5192 11.4839C24.1938 15.221 26.0231 18.6134 27.8642 21.9446C28.7833 23.6074 31.7203 22.4645 31.0958 20.6599C30.3122 18.3993 29.6258 16.0775 28.7273 13.8558C28.0704 12.2263 26.845 10.6442 24.8006 10.7498C23.6606 10.8082 22.7827 11.7703 23.095 12.8631C23.7401 15.1154 25.3308 16.8255 26.5563 18.7969C27.7817 20.7684 28.2972 22.8649 29.128 24.9977C29.9587 27.1304 31.5435 28.2009 34.0209 28.2538C36.8666 28.3122 39.7269 28.2093 42.5726 28.187C44.4432 28.1731 44.8232 26.007 43.4652 25.0783C40.5282 23.0679 39.2998 19.467 37.9035 16.4584C36.136 12.6434 34.1417 8.92852 31.9589 5.31095C30.9779 3.68707 28.1352 4.76595 28.7273 6.59559C30.2061 11.1641 31.6879 15.7327 33.1666 20.3012L36.1213 18.6773C33.6174 15.9801 31.6142 12.9521 30.0765 9.67372L27.0247 11.3588C29.5522 15.8939 32.0797 20.4263 34.6071 24.9615L35.6647 22.5118C35.052 22.7064 34.4628 22.8483 33.8088 22.7815C32.9604 22.6953 33.2344 22.7092 33.1166 22.0975C32.8632 20.7823 33.2432 19.0833 33.2963 17.7403L30.6362 19.1806C32.3153 20.1956 32.819 22.345 33.9296 23.8187C35.1403 25.4231 36.787 26.5882 38.9434 26.5965C40.649 26.6049 41.4149 24.2691 39.8359 23.4878C38.3954 22.7732 37.3438 21.7193 36.8165 20.2512C36.0918 18.2269 32.6747 19.0972 33.4082 21.1382C34.2212 23.4044 35.7943 25.2507 38.0508 26.3685L38.9434 23.2598C37.2053 23.2514 36.3658 21.2188 35.6853 19.9898C34.8664 18.5077 33.9296 17.212 32.4184 16.2999C31.243 15.5881 29.8084 16.5307 29.7584 17.7403C29.6994 19.1917 29.5934 20.646 29.5787 22.0975C29.5669 23.0818 29.6847 24.0467 30.3976 24.8225C31.8528 26.413 34.6867 26.3379 36.6044 25.7317C37.715 25.3786 38.2128 24.2719 37.6619 23.282C35.1344 18.7469 32.607 14.2145 30.0795 9.67928C29.0013 7.74398 26.1262 9.44293 27.0276 11.3643C28.689 14.9068 30.919 18.1323 33.6233 21.0436C34.7957 22.306 37.0787 20.9713 36.5779 19.4198C35.0991 14.8512 33.6174 10.2827 32.1386 5.71413L28.907 6.99878C31.2696 10.9111 33.3935 14.9374 35.2758 19.075C36.8194 22.4673 38.4249 25.7345 41.68 27.9618L42.5726 24.8531C40.1983 24.8725 37.821 24.8892 35.4467 24.9087C34.4716 24.917 33.2668 25.2257 32.6718 24.3832C32.2593 23.7992 32.1592 22.9066 31.95 22.2449C31.3933 20.4625 30.6038 18.7218 29.6081 17.1174C28.5506 15.4185 27.0571 13.9142 26.5033 11.9816L24.7976 14.0949C25.3721 14.0643 25.9789 16.6364 26.1291 17.0729C26.6476 18.5661 27.1631 20.0593 27.6816 21.5553L30.9131 20.2706C29.2016 17.1758 27.5549 14.081 26.9245 10.608C26.5416 8.49475 23.1362 9.3901 23.5162 11.495L23.5192 11.4839Z" fill="#F5CC68"/>
<path d="M31.4366 12.7686C31.1538 12.7074 31.2628 12.5739 31.4513 12.9521C31.5839 13.219 31.6782 13.511 31.7754 13.7891C32.0051 14.4509 32.176 15.1238 32.3086 15.8078C32.4794 16.6948 33.6224 17.1953 34.4826 16.9729C35.4724 16.7171 35.8877 15.8106 35.7169 14.9208C35.3575 13.0494 34.6858 10.0436 32.3763 9.55142C30.0668 9.05925 29.2155 12.2931 31.4366 12.7686Z" fill="#F5CC68"/>
<path d="M57.9723 20.4346C57.9488 19.9758 58.0283 19.5254 58.0106 19.0721L58.1196 18.63C56.6909 18.5104 56.1901 18.7829 56.6232 19.4503C57.3272 20.9852 60.0079 20.1871 59.9166 18.6078C59.8842 18.0377 59.9961 17.5511 60.5234 17.2119C61.5898 16.5251 61.74 14.9874 60.5234 14.3312C58.6823 13.3357 56.9236 14.8372 55.1414 15.3016C53.1943 15.8105 50.8582 15.7326 49.0348 16.5584C46.8078 17.565 47.4853 19.4447 48.6518 20.9296C49.9745 22.6118 51.1351 24.4053 52.1132 26.285C52.4784 26.9885 52.7553 27.7115 53.4152 28.2203C54.3225 28.9183 55.3742 28.8015 56.4729 28.7208C58.2345 28.5929 60.3614 28.5318 61.7253 27.3027C62.2997 26.7855 62.7033 26.0848 62.7593 25.3341C62.8388 24.2774 62.2379 23.9521 61.5751 23.2625C60.3025 21.9389 60.6501 19.0415 60.815 17.4288L57.3419 17.8737C57.7396 19.7311 58.1373 21.5886 58.5379 23.446L60.2436 21.3328C59.1035 21.1909 58.0283 19.6699 57.1917 19.0193C56.0428 18.1267 54.1988 18.6606 54.1752 20.1983C54.1428 22.2309 54.6112 24.0995 55.4949 25.943L58.2699 23.9215C56.3463 22.2809 56.0134 19.6616 54.0044 18.1211L52.7553 20.9685C53.4005 20.9212 54.1958 20.7905 54.8262 20.9963C55.5214 21.2215 55.4625 21.6164 55.8101 22.1753C56.5171 23.3098 57.8074 23.6017 59.1094 23.6629C61.3836 23.7713 61.3777 20.4346 59.1094 20.3262L58.7353 20.3095C58.8561 20.5153 58.8679 20.518 58.7707 20.3206C58.6145 20.1399 58.5556 19.8229 58.4289 19.6171C58.0784 19.0554 57.5481 18.5827 56.9502 18.2546C55.6658 17.5511 54.1958 17.5317 52.7553 17.6345C51.3973 17.7319 50.2102 19.4892 51.5063 20.4819C52.4666 21.2187 52.8408 22.2698 53.371 23.2931C53.9602 24.4331 54.7732 25.4314 55.7718 26.2822C57.3213 27.603 59.3628 25.9625 58.5468 24.2607C57.9252 22.9622 57.6866 21.6164 57.7102 20.1983L54.6937 21.3772C56.5171 22.7926 57.7691 24.3608 60.2465 24.6667C61.472 24.8196 62.1495 23.4849 61.9521 22.5534C61.5544 20.696 61.1567 18.8385 60.7561 16.9811C60.3349 15.0124 57.4598 15.677 57.283 17.426C57.1063 19.175 57.1564 20.988 57.5481 22.7258C57.6954 23.3848 57.934 24.0717 58.2964 24.6556C58.6823 25.2729 59.3274 25.6733 59.7428 26.1794L59.2243 25.0004C59.2243 24.803 59.0682 25.0004 58.753 25.1005C58.3759 25.2173 57.9812 25.2451 57.5894 25.2896C57.0945 25.3452 56.3846 25.2562 55.9162 25.4202C55.2298 25.3368 55.1738 25.4508 55.7512 25.7567L55.6039 25.4731C55.5538 24.7307 54.5906 23.5294 54.2106 22.8899C53.6656 21.9779 53.0764 21.0881 52.449 20.2261C52.1573 19.8284 51.8598 19.4364 51.5505 19.0499C51.4091 18.8719 51.2648 18.694 51.1204 18.5188C50.49 19.3224 50.4517 19.6366 50.9996 19.4614C51.7125 19.5921 53.1943 19.0888 53.9189 18.9609C54.8851 18.7913 55.8455 18.6022 56.7822 18.3158C57.2418 18.174 57.6895 18.0099 58.1314 17.8264C58.3523 17.7402 58.5703 17.6484 58.7824 17.5456C59.3745 17.3676 59.3598 17.2564 58.7382 17.2035V14.3228C57.1946 15.3183 56.2756 16.8059 56.3816 18.5994L59.675 17.7569C59.0446 16.3833 57.4627 15.4017 55.9132 16.2109C54.3637 17.02 54.3608 19.0221 54.4344 20.4263C54.5493 22.5618 58.0843 22.5757 57.9694 20.4263L57.9723 20.4346Z" fill="#F46969"/>
<path d="M48.4697 14.5787C50.7733 13.5304 53.4452 13.636 55.902 13.1327C56.9124 12.927 58.2262 12.6823 58.942 11.912C59.7374 11.0584 59.6137 9.91279 58.7948 9.13144C57.1922 7.6021 54.6942 9.96006 56.2938 11.4922L56.4676 11.659L55.9491 10.48L55.9197 10.7331L56.4381 9.55409C56.0817 9.8822 54.7413 9.96006 54.2553 10.0407C53.3892 10.1853 52.5173 10.2743 51.6482 10.3883C49.9014 10.6163 48.2753 10.9722 46.6816 11.6979C44.6314 12.6294 46.4224 15.5074 48.4668 14.5787H48.4697Z" fill="#D86464"/>
<path d="M72.0543 19.4475C69.7713 21.5969 67.4883 23.7463 65.2053 25.8957C63.591 27.4139 66.092 29.7747 67.7063 28.2565C69.9892 26.1071 72.2722 23.9577 74.5552 21.8082C76.1695 20.29 73.6685 17.9293 72.0543 19.4475Z" fill="#91653D"/>
<path d="M78.8221 16.5529C78.2683 16.2526 77.3816 15.4935 76.766 15.4351C76.3742 15.1265 76.1739 15.36 76.168 16.1386C75.6525 16.5696 75.5965 16.9033 76.003 17.1424C76.1591 17.426 76.7895 17.8209 77.0222 18.0239C77.5348 18.466 78.0651 19.0888 78.6542 19.4336L79.0607 19.7868C79.0931 19.2557 79.0195 19.1528 78.8398 19.4753C78.0886 19.9898 81.4292 20.012 79.8001 20.7739L78.4392 20.9407C77.9737 20.8406 78.1299 20.7322 78.342 21.2633C78.4952 21.6498 78.613 22.0502 78.7102 22.4534C78.8899 23.2069 78.9252 23.9466 78.9076 24.7168C78.8634 26.4908 81.2465 26.8273 82.201 25.5593C83.6886 23.5823 85.2057 21.6776 87.253 20.1816C88.6199 19.1806 87.309 17.4789 86.004 17.3343C84.6253 17.1813 83.2497 17.1063 81.8622 17.1118C79.588 17.1202 79.5821 20.4569 81.8622 20.4486C83.2497 20.443 84.6253 20.5181 86.004 20.671L84.755 17.8237C82.4838 19.4865 80.8017 21.6832 79.1491 23.8771L82.4425 24.7196C82.4896 22.8204 82.1568 20.7489 81.167 19.0666C80.3657 17.7041 78.448 17.1118 77.2697 18.4437C76.274 19.5699 76.4891 21.6804 77.7911 22.5146C79.4201 23.5573 81.1847 22.3283 82.0331 20.988C83.0788 19.3308 82.2834 18.0545 80.9549 16.9033C79.6263 15.7521 78.1034 13.8585 76.3329 13.4804C74.5625 13.1022 72.7774 14.3924 73.066 16.1414C73.3547 17.8904 75.6053 18.6606 77.0399 19.4392C79.0136 20.5125 80.7988 17.629 78.8251 16.5585L78.8221 16.5529Z" fill="#828282"/>
<path d="M30.868 72.8687C27.2889 72.4016 23.5065 73.7418 22.2604 77.1953C21.0144 80.6489 23.3239 83.9773 26.4906 85.5594C29.6573 87.1416 33.9022 86.4214 35.6019 83.1458C37.3017 79.8703 35.8788 76.3361 33.3042 73.9059C31.9344 72.6129 29.3068 74.3591 30.5293 75.9274C31.2922 76.9062 31.6133 77.985 31.7459 79.1863C31.8048 79.7285 31.8902 80.3152 31.8608 80.8602C31.8254 81.5359 31.6192 81.6638 30.9977 82.0002C29.7722 82.6648 28.5085 83.435 27.2123 83.9633C25.9162 84.4917 24.7378 83.6742 23.7746 82.8372C23.6774 82.751 23.2149 82.206 23.1 82.2116L22.8761 83.2404L23.1353 83.3071C23.5124 83.6797 24.0102 83.9383 24.3873 84.3554C25.2386 85.3036 25.9928 86.2379 27.1946 86.8107C29.3333 87.8312 32.5265 88.2566 34.4177 86.6188C36.0968 85.1646 33.5929 82.8094 31.9167 84.2581C31.4484 84.6641 29.9107 84.2108 29.4364 84.0718C28.3788 83.7631 27.8515 83.1041 27.1711 82.3256C26.0664 81.0632 24.7084 79.9454 22.8761 79.8981C21.0438 79.8508 19.2056 81.2522 19.6652 83.0763C20.057 84.6307 22.1043 86.0738 23.536 86.7857C25.2386 87.631 27.0444 87.7088 28.7913 86.9386C30.5381 86.1684 32.8034 85.2174 34.1939 83.955C35.5607 82.7176 35.4517 81.0326 35.3015 79.3892C35.1336 77.5568 34.7565 75.7439 33.5811 74.234C32.6561 74.9069 31.7312 75.5826 30.8062 76.2555C32.0935 77.4706 33.1923 79.1473 32.7268 80.9325C32.2054 82.929 30.1404 83.5546 28.2757 82.6676C26.7528 81.9418 25.1385 80.3597 25.4979 78.6357C25.8896 76.7477 28.0401 75.8273 29.9283 76.0748C30.8798 76.1999 31.8136 75.8551 32.1023 74.9097C32.338 74.1311 31.8136 72.9799 30.868 72.8576V72.8687Z" fill="#828282"/>
<path d="M74.6108 73.1606C70.8638 73.9252 67.1815 76.1914 66.6837 80.0593C66.1859 83.9271 70.092 86.3879 73.786 86.8162C77.4801 87.2444 81.6042 85.3925 81.8663 81.5108C82.0755 78.4048 79.8396 73.13 75.8628 73.3135C73.5975 73.4192 73.5857 76.7559 75.8628 76.6502C77.6715 76.5668 78.6996 80.7572 78.2136 81.9556C77.5095 83.688 74.9025 83.763 73.3176 83.3515C71.4294 82.8621 69.5942 81.7388 70.3718 79.7034C71.1495 77.6679 73.4826 76.8004 75.5535 76.3777C77.7746 75.9245 76.8349 72.7073 74.6138 73.1606H74.6108Z" fill="#828282"/>
<path d="M28.9891 81.4385C31.2632 81.4385 31.2662 78.1018 28.9891 78.1018C26.712 78.1018 26.712 81.4385 28.9891 81.4385Z" fill="#474747"/>
<path d="M74.6375 82.0196C76.9117 82.0196 76.9146 78.6829 74.6375 78.6829C72.3604 78.6829 72.3604 82.0196 74.6375 82.0196Z" fill="#474747"/>
<path d="M1.76748 15.944H17.6895L15.9839 14.7205C17.99 21.0797 19.999 27.4418 22.0051 33.801C24.5797 41.9566 27.1514 50.1149 29.726 58.2704C29.8321 58.6041 29.8998 58.9906 30.053 59.3104C30.0795 59.366 30.0854 59.4327 30.109 59.4911C29.835 58.8237 30.0471 59.2742 30.0471 59.7219V66.2841C30.0471 67.185 30.8572 67.9525 31.8146 67.9525H80.9888L79.2213 66.2841V72.154L80.9888 70.4856H25.7227L27.4902 72.154V60.1557C27.4902 59.3131 27.5638 58.4678 27.3458 57.6475C27.0719 56.6215 26.7007 55.6066 26.3826 54.5917C23.4986 45.4518 20.6147 36.3119 17.7278 27.1748C16.8676 24.4471 16.0045 21.7193 15.1443 18.9915C14.9205 18.288 14.2282 17.768 13.4387 17.768H1.76748L3.53496 19.4364V14.2784C3.53496 12.1317 0 12.129 0 14.2784V19.4364C0 20.3373 0.810094 21.1048 1.76748 21.1048H13.4387L11.7331 19.8813C13.9071 26.7661 16.0782 33.6481 18.2522 40.5329C19.675 45.0375 21.0949 49.5421 22.5177 54.0467L23.7431 57.9312C23.8227 58.187 23.8727 58.4929 23.9965 58.7348C24.1055 58.9517 23.9876 58.1981 23.9523 58.415C23.9169 58.6319 23.9523 58.8766 23.9523 59.0879V72.1568C23.9523 73.0577 24.7624 73.8251 25.7198 73.8251H80.9888C81.9432 73.8251 82.7563 73.0605 82.7563 72.1568V66.2869C82.7563 65.386 81.9462 64.6185 80.9888 64.6185H31.8176L33.585 66.2869V60.3948C33.585 59.5773 33.5968 58.846 33.3494 58.0646L30.6363 49.4698L21.6781 21.0825C20.9152 18.6662 20.1522 16.2526 19.3922 13.8363C19.1683 13.13 18.476 12.6128 17.6866 12.6128H1.76748C-0.506677 12.6128 -0.509623 15.9495 1.76748 15.9495V15.944Z" fill="#333333"/>
<path d="M22.4509 31.0343H83.8089L82.1033 28.9211C80.2739 39.4679 78.4475 50.0148 76.6182 60.5616C76.3531 62.0854 76.0909 63.6092 75.8258 65.1302C75.4605 67.2295 78.8688 68.1332 79.2341 66.0172C81.0634 55.4703 82.8898 44.9235 84.7191 34.3766C84.9842 32.8529 85.2464 31.3291 85.5115 29.8081C85.6942 28.757 85.052 27.6948 83.8059 27.6948H22.4509C20.1767 27.6948 20.1738 31.0316 22.4509 31.0316V31.0343Z" fill="#333333"/>
<path d="M73.2645 30.2168C71.9595 40.5523 70.6545 50.8851 69.3495 61.2206L68.7957 65.614C68.5277 67.7411 72.0656 67.7245 72.3307 65.614C73.6357 55.2784 74.9407 44.9457 76.2457 34.6102C76.4312 33.1448 76.6168 31.6822 76.7995 30.2168C77.0675 28.0896 73.5296 28.1063 73.2645 30.2168Z" fill="#333333"/>
<path d="M64.1241 30.2169C63.4437 40.7443 62.7632 51.2689 62.0827 61.7963C61.9855 63.2922 61.8883 64.7882 61.7911 66.2842C61.6526 68.428 65.1876 68.4225 65.326 66.2842C66.0065 55.7568 66.687 45.2322 67.3675 34.7048C67.4647 33.2088 67.5619 31.7129 67.6591 30.2169C67.7976 28.073 64.2626 28.0786 64.1241 30.2169Z" fill="#333333"/>
<path d="M54.0176 30.2169V65.5779C54.0176 67.7245 57.5525 67.7273 57.5525 65.5779V30.2169C57.5525 28.0702 54.0176 28.0674 54.0176 30.2169Z" fill="#333333"/>
<path d="M42.4848 30.2169C43.5836 40.7582 44.6824 51.2967 45.7782 61.838C45.9314 63.3201 46.0875 64.8021 46.2407 66.2842C46.4616 68.403 49.9995 68.4225 49.7756 66.2842C48.6769 55.7429 47.5781 45.2044 46.4822 34.6631C46.3291 33.181 46.1729 31.699 46.0198 30.2169C45.7988 28.0981 42.2609 28.0786 42.4848 30.2169Z" fill="#333333"/>
<path d="M32.8308 30.659C34.6041 41.1641 36.3775 51.6693 38.1509 62.1744C38.4072 63.6926 38.6635 65.2081 38.9197 66.7263C39.2762 68.8423 42.6845 67.9442 42.328 65.8393C40.5547 55.3341 38.7813 44.829 37.0079 34.3238C36.7516 32.8056 36.4953 31.2902 36.2391 29.772C35.8826 27.6559 32.4743 28.5541 32.8308 30.659Z" fill="#333333"/>
<path d="M25.2712 39.9741H81.9572C84.2313 39.9741 84.2343 36.6373 81.9572 36.6373H25.2712C22.997 36.6373 22.9941 39.9741 25.2712 39.9741Z" fill="#333333"/>
<path d="M28.1911 49.2224H80.4967C82.7708 49.2224 82.7738 45.8856 80.4967 45.8856H28.1911C25.9169 45.8856 25.914 49.2224 28.1911 49.2224Z" fill="#333333"/>
<path d="M31.1813 58.7015H78.9239C81.198 58.7015 81.201 55.3647 78.9239 55.3647H31.1813C28.9072 55.3647 28.9042 58.7015 31.1813 58.7015Z" fill="#333333"/>
<path d="M35.7621 80.2679C35.6767 83.7715 32.7397 86.6883 28.9603 86.6883C25.1808 86.6883 22.1584 83.7743 22.1584 80.2679C22.1584 76.7616 25.2456 73.8419 28.9603 73.8475C32.7397 73.8558 35.6738 76.756 35.7621 80.2679C35.8152 82.4118 39.3501 82.4201 39.2971 80.2679C39.1969 76.1804 36.5929 72.5462 32.5011 71.1058C28.4772 69.6905 23.7521 70.9084 21.0273 74.031C18.2729 77.187 17.8429 81.775 20.1023 85.2952C22.3617 88.8155 26.7509 90.5895 31.0165 89.8276C35.8564 88.9629 39.1881 84.8142 39.3 80.2679C39.3531 78.1213 35.8181 78.1213 35.7651 80.2679H35.7621Z" fill="#333333"/>
<path d="M30.4241 80.1483C30.3239 81.9195 27.5019 81.9334 27.5019 80.1483C27.5019 78.3631 30.3239 78.3798 30.4241 80.1483C30.5449 82.2838 34.0828 82.2977 33.959 80.1483C33.8147 77.5957 31.785 75.4324 28.963 75.4324C26.1409 75.4324 23.9846 77.5901 23.9669 80.1483C23.9492 82.7064 26.1586 84.7558 28.7862 84.8559C31.6761 84.9643 33.8088 82.7621 33.959 80.1483C34.0828 78.0017 30.5449 78.01 30.4241 80.1483Z" fill="#333333"/>
<path d="M81.2133 80.2679C81.1279 83.7715 78.1909 86.6883 74.4115 86.6883C70.632 86.6883 67.6096 83.7743 67.6096 80.2679C67.6096 76.7616 70.6968 73.8419 74.4115 73.8475C78.1261 73.853 81.1249 76.756 81.2133 80.2679C81.2663 82.4118 84.8013 82.4201 84.7483 80.2679C84.6481 76.1804 82.044 72.5462 77.9523 71.1058C73.9284 69.6905 69.2033 70.9084 66.4784 74.031C63.7241 77.187 63.294 81.775 65.5535 85.2952C67.8129 88.8155 72.2021 90.5895 76.4676 89.8276C81.3076 88.9629 84.6393 84.8142 84.7512 80.2679C84.8042 78.1213 81.2693 78.1213 81.2163 80.2679H81.2133Z" fill="#333333"/>
<path d="M75.8714 80.1483C75.7712 81.9195 72.9491 81.9334 72.9491 80.1483C72.9491 78.3631 75.7712 78.3798 75.8714 80.1483C75.9921 82.2838 79.53 82.2977 79.4063 80.1483C79.262 77.5957 77.2323 75.4324 74.4102 75.4324C71.5882 75.4324 69.4318 77.5901 69.4142 80.1483C69.3965 82.7064 71.6058 84.7558 74.2335 84.8559C77.1233 84.9643 79.2561 82.7621 79.4063 80.1483C79.53 78.0017 75.9921 78.01 75.8714 80.1483Z" fill="#333333"/>
<path d="M62.8097 30.2696C66.2475 26.4435 69.6882 22.6174 73.1259 18.7941C74.59 17.1646 72.1008 14.7956 70.6249 16.4333C67.1872 20.2594 63.7465 24.0856 60.3088 27.9089C58.8447 29.5383 61.3339 31.9074 62.8097 30.2696Z" fill="#333333"/>
<path d="M70.3287 29.7748C72.6028 27.1888 74.874 24.6001 77.1482 22.0141C78.5916 20.3735 76.1024 17.9989 74.6472 19.6534C72.373 22.2393 70.1018 24.8281 67.8277 27.414C66.3842 29.0546 68.8734 31.4292 70.3287 29.7748Z" fill="#333333"/>
<path d="M69.6679 18.5744L75.9926 22.9455L75.1795 21.9473C75.86 24.08 76.5375 26.2155 77.218 28.3483C77.4949 29.2214 78.4494 29.7441 79.392 29.5133C85.3926 28.0396 90.2031 23.1513 89.991 17.1341C89.9674 16.4584 89.4637 15.652 88.6949 15.5241C87.49 15.3239 86.2822 15.1265 85.0774 14.9263L82.5912 14.5147C82.3319 14.473 82.0639 14.3979 81.8017 14.384C81.1183 14.3451 81.8194 14.0643 82.2259 14.7483C82.0698 14.4869 81.51 14.2255 81.2626 14.0448L79.2565 12.5794C78.2638 11.8537 77.271 11.1279 76.2754 10.4022C75.2797 9.67647 74.2516 9.80716 73.5004 10.7387C72.0099 12.5878 70.5193 14.4369 69.0287 16.2888C67.653 17.9988 70.7196 19.6616 72.0806 17.9738C73.5711 16.1247 75.0617 14.2756 76.5523 12.4237L73.7773 12.7602C75.8011 14.2367 77.7659 15.9384 79.9164 17.2425C80.9887 17.8904 82.6206 17.8904 83.849 18.0934C85.1511 18.3075 86.4502 18.5244 87.7522 18.7385L86.456 17.1285C86.621 21.8083 82.7296 25.2395 78.4523 26.2906L80.6263 27.4557L79.4833 23.8659C79.0886 22.6286 78.8795 20.9074 77.7748 20.0565C75.7628 18.5021 73.5505 17.1368 71.4502 15.6854C69.612 14.4146 67.8474 17.3092 69.665 18.5661L69.6679 18.5744Z" fill="#333333"/>
<path d="M53.5184 28.1509C52.3637 25.2312 51.5418 21.8862 49.6388 19.3197C49.3324 18.9081 49.0467 18.4771 48.7197 18.0795C48.6078 17.9433 48.5194 17.7931 48.4075 17.6568C48.272 17.4928 48.5783 18.2297 48.5164 17.8932C48.3721 17.1118 48.0864 16.3305 47.8772 15.5631C47.4118 13.8724 46.9493 12.1846 46.4839 10.494L45.2496 12.5461C50.06 11.2475 54.8735 9.95178 59.684 8.65324L57.51 7.48816C58.0108 9.24829 58.5115 11.0056 59.0094 12.7658L59.4041 14.1588C59.4395 14.2784 59.6722 14.9763 59.5308 14.5036C59.3982 14.056 59.6044 15.0931 59.628 15.2933L59.8607 17.1091C60.2702 20.3179 61.5457 23.4767 62.4648 26.5826C63.0746 28.6486 66.4888 27.7699 65.8731 25.6956C65.3752 24.0161 64.8804 22.3366 64.3825 20.6571C64.1086 19.7367 63.8847 18.7858 63.5606 17.8793C63.4988 17.7041 63.3014 16.9839 63.4929 17.8654C63.4045 17.4622 63.3868 17.0284 63.3338 16.6197C62.8949 13.1856 61.8668 9.94344 60.9153 6.60393C60.6708 5.73916 59.6575 5.19138 58.7413 5.43885C53.9308 6.73739 49.1174 8.03316 44.3069 9.3317C43.379 9.58196 42.8311 10.5023 43.0726 11.3838C43.9181 14.4619 44.3099 17.9405 46.2629 20.5709C46.5546 20.963 46.8197 21.3829 47.1408 21.7527C47.6386 22.3311 47.1378 21.4663 47.2704 21.8528C47.5443 22.6508 47.8949 23.4322 48.2042 24.2191C48.8405 25.8263 49.4768 27.4363 50.1131 29.0434C50.9025 31.0371 54.3197 30.1752 53.5214 28.1564L53.5184 28.1509Z" fill="#333333"/>
<path d="M46.484 19.9925C45.5207 21.38 44.2865 22.7676 43.5264 24.258C43.0139 25.2646 43.6178 26.3184 43.9565 27.2944L44.8285 29.8109C45.5325 31.8435 48.9467 30.9731 48.2368 28.9238C47.7448 27.5029 47.2499 26.0793 46.758 24.6584L46.5812 25.943C47.5681 24.5221 48.552 23.0985 49.5388 21.6776C50.7878 19.8757 47.7301 18.2018 46.487 19.9925H46.484Z" fill="#333333"/>
<path d="M47.0002 18.1991C51.7871 16.9839 56.5711 15.766 61.358 14.5509C63.5527 13.992 62.6218 10.7748 60.4183 11.3337C55.6314 12.5489 50.8474 13.7668 46.0605 14.9819C43.8659 15.5408 44.7968 18.758 47.0002 18.1991Z" fill="#333333"/>
<path d="M29.567 4.52403C31.2226 7.94418 22.7711 11.9149 21.1037 8.45581C20.2936 6.77632 22.3056 4.93278 23.6577 4.18757C25.3162 3.27553 28.3828 2.60541 29.567 4.52403C30.7512 6.44265 33.7677 4.70198 32.6189 2.83898C30.4125 -0.736887 25.2632 -0.561709 21.8726 1.30408C18.806 2.99469 16.1195 6.79578 18.0489 10.1353C19.9784 13.4748 25.0953 13.4776 28.3887 11.8787C31.8647 10.1937 34.3598 6.43709 32.6189 2.8362C31.6762 0.884208 28.6273 2.58038 29.567 4.52125V4.52403Z" fill="#333333"/>
<path d="M18.0494 10.1381C21.5902 16.7559 25.1281 23.3738 28.669 29.9916C29.6941 31.9103 32.746 30.2224 31.7208 28.3066C28.18 21.6887 24.6421 15.0709 21.1012 8.45303C20.0761 6.53441 17.0242 8.22224 18.0494 10.1381Z" fill="#333333"/>
<path d="M29.4046 4.26545C33.4462 11.4144 37.4908 18.5661 41.5325 25.7151C42.1039 26.7272 42.6754 27.7366 43.2469 28.7487C44.3192 30.6451 47.371 28.9601 46.2988 27.0637C42.2571 19.9147 38.2125 12.763 34.1709 5.61405C33.5994 4.60191 33.0279 3.59255 32.4565 2.5804C31.3842 0.684029 28.3323 2.36908 29.4046 4.26545Z" fill="#333333"/>
</g>
<defs>
<clipPath id="clip0_686_275">
<rect width="90" height="90" fill="white"/>
</clipPath>
</defs>
</svg>
