<svg width="150" height="150" viewBox="0 0 150 150" fill="none" xmlns="http://www.w3.org/2000/svg">
<circle cx="75" cy="75" r="75" fill="white"/>
<path d="M39.552 77.3755C45.2805 71.7342 51.0089 66.0928 56.7374 60.4515C65.799 51.5278 74.8606 42.6039 83.9222 33.6802C86.0191 31.6152 88.1186 29.5477 90.2155 27.4827C92.6427 25.0924 88.8753 21.3797 86.448 23.7726C80.7196 29.4139 74.9911 35.0553 69.2627 40.6966C60.2011 49.6203 51.1395 58.5439 42.0779 67.4677C39.981 69.5326 37.8815 71.6002 35.7846 73.6651C33.3573 76.0555 37.1248 79.7685 39.552 77.3755Z" fill="#5C5C5C"/>
<path d="M90.2154 123.518C84.487 117.877 78.7585 112.236 73.0301 106.594C63.9685 97.6707 54.9069 88.7468 45.8453 79.8231C43.7484 77.7581 41.6489 75.6906 39.552 73.6256C37.1248 71.2352 33.3546 74.9453 35.7846 77.3357C41.513 82.9769 47.2415 88.6183 52.9699 94.2596C62.0315 103.183 71.0931 112.107 80.1547 121.031C82.2516 123.096 84.3511 125.163 86.448 127.228C88.8752 129.619 92.6454 125.909 90.2154 123.518Z" fill="#5C5C5C"/>
<path d="M39.552 77.3755C45.2805 71.7342 51.0089 66.0928 56.7374 60.4515C65.799 51.5278 74.8606 42.6039 83.9222 33.6802C86.0191 31.6152 88.1186 29.5477 90.2155 27.4827C92.6427 25.0924 88.8753 21.3797 86.448 23.7726C80.7196 29.4139 74.9911 35.0553 69.2627 40.6966C60.2011 49.6203 51.1395 58.5439 42.0779 67.4677C39.981 69.5326 37.8815 71.6002 35.7846 73.6651C33.3573 76.0555 37.1248 79.7685 39.552 77.3755Z" stroke="#5C5C5C" stroke-width="3"/>
<path d="M90.2154 123.518C84.487 117.877 78.7585 112.236 73.0301 106.594C63.9685 97.6707 54.9069 88.7468 45.8453 79.8231C43.7484 77.7581 41.6489 75.6906 39.552 73.6256C37.1248 71.2352 33.3546 74.9453 35.7846 77.3357C41.513 82.9769 47.2415 88.6183 52.9699 94.2596C62.0315 103.183 71.0931 112.107 80.1547 121.031C82.2516 123.096 84.3511 125.163 86.448 127.228C88.8752 129.619 92.6454 125.909 90.2154 123.518Z" stroke="#5C5C5C" stroke-width="3"/>
</svg>
