<svg width="130" height="130" viewBox="0 0 130 130" fill="none" xmlns="http://www.w3.org/2000/svg">
<circle cx="65" cy="65" r="65" fill="#F5CC68"/>
<path d="M36.0684 77.5813L33.301 96.9529L52.6726 94.1856L36.0684 77.5813Z" stroke="black" stroke-width="4" stroke-linejoin="round"/>
<path d="M68.7552 44.8962L36.0702 77.5811L52.6745 94.1854L65.4643 81.3956M68.7552 44.8962L85.3595 61.5004L91.0438 55.8161M68.7552 44.8962L74.4395 39.2118M91.0438 55.8161L96.7281 50.1317C99.5703 47.2896 103.594 39.9448 96.9525 33.3031C90.3108 26.6614 82.9661 30.6853 80.1239 33.5275L74.4395 39.2118M91.0438 55.8161L74.4395 39.2118" stroke="black" stroke-width="4" stroke-linejoin="round"/>
<path d="M57.3047 102.308C59.2615 99.6992 64.3493 94.481 69.0457 94.481C74.9162 94.481 76.873 102.308 80.7867 102.308C83.9176 102.308 89.9185 97.0901 92.5276 94.481" stroke="black" stroke-width="4" stroke-linejoin="round"/>
</svg>
